#!OML:ASF F:\VICON\USERDATA\INSTALL\rory3\rory3.ASF
:FULLY-SPECIFIED
:DEGREES
462
root -2.47647 21.2684 3.39018 173.467 5.39568 175.272
lowerback 11.5008 -1.02946 -4.2908
upperback 2.6468 -1.63968 -0.765996
thorax -3.56861 -0.66631 1.84482
lowerneck -7.31577 -0.0288846 -6.90939
upperneck 28.5254 2.88029 2.73582
head 10.1698 1.77816 2.62745
rclavicle -2.98177e-015 1.68967e-014
rhumerus -36.4856 5.521 -75.5319
rradius 34.5336
rwrist 15.2717
rhand -23.746 3.77489
rfingers 7.12502
rthumb 2.72265 -26.1875
lclavicle -2.98177e-015 1.68967e-014
lhumerus -16.8715 0.421545 86.7135
lradius 27.682
lwrist -2.91541
lhand -27.0851 21.9866
lfingers 7.12502
lthumb -0.502267 51.9658
rfemur -49.1901 -3.71914 10.7067
rtibia 110.215
rfoot -21.3239 -16.2164
rtoes -9.23087
lfemur -9.05363 -2.89845 -32.6425
ltibia 42.763
lfoot -23.2714 0.743355
ltoes 4.52208
463
root -2.47484 21.2717 3.35599 173.242 5.03888 175.052
lowerback 11.3794 -1.08916 -4.4167
upperback 2.64336 -1.72827 -0.758416
thorax -3.49545 -0.71139 1.9329
lowerneck -7.32414 -0.0369579 -6.82989
upperneck 28.5824 2.93407 2.51762
head 10.1968 1.79265 2.54508
rclavicle -8.64713e-015 1.74931e-014
rhumerus -36.5056 5.19256 -75.406
rradius 34.0178
rwrist 15.4085
rhand -24.1311 3.64398
rfingers 7.12502
rthumb 2.35076 -26.3228
lclavicle -8.64713e-015 1.74931e-014
lhumerus -17.1417 0.47859 86.9501
lradius 27.8933
lwrist -3.06593
lhand -27.0649 22.1554
lfingers 7.12502
lthumb -0.482778 52.1346
rfemur -49.5814 -4.0745 10.4301
rtibia 111.006
rfoot -22.011 -15.9461
rtoes -10.0549
lfemur -8.40341 -3.03369 -33.0011
ltibia 42.2733
lfoot -23.3062 0.806501
ltoes 5.71048
464
root -2.47153 21.2724 3.32053 173.034 4.84017 174.94
lowerback 11.2233 -1.10672 -4.44833
upperback 2.64748 -1.74819 -0.722771
thorax -3.40176 -0.724571 1.98674
lowerneck -7.40857 -0.106944 -6.75622
upperneck 28.8345 2.93913 2.30416
head 10.3144 1.78918 2.46955
rclavicle -3.97569e-015 -2.56432e-014
rhumerus -36.5731 4.76636 -75.2628
rradius 33.5427
rwrist 15.6332
rhand -24.7053 3.76124
rfingers 7.12502
rthumb 1.79621 -26.2109
lclavicle -3.97569e-015 -2.56432e-014
lhumerus -17.4271 0.440171 87.1615
lradius 28.1084
lwrist -3.05178
lhand -27.0651 21.7846
lfingers 7.12502
lthumb -0.482931 51.7638
rfemur -49.9821 -4.17656 10.3017
rtibia 111.729
rfoot -22.7446 -15.493
rtoes -9.16915
lfemur -7.77189 -3.11867 -33.2446
ltibia 41.8305
lfoot -23.3446 1.02372
ltoes 7.76298
465
root -2.46926 21.2753 3.28268 172.785 4.65887 174.893
lowerback 11.1387 -1.12648 -4.3687
upperback 2.66016 -1.76054 -0.693165
thorax -3.34293 -0.733363 1.97231
lowerneck -7.49047 -0.132525 -6.72811
upperneck 28.9726 2.93468 2.28239
head 10.3833 1.79241 2.46388
rclavicle 4.37326e-014 1.03368e-014
rhumerus -36.6902 4.34526 -75.1271
rradius 33.2136
rwrist 15.7327
rhand -24.5992 3.87148
rfingers 7.12502
rthumb 1.89862 -26.0998
lclavicle 4.37326e-014 1.03368e-014
lhumerus -17.6486 0.336782 87.3539
lradius 28.2221
lwrist -2.90066
lhand -27.1623 21.7609
lfingers 7.12502
lthumb -0.576856 51.7399
rfemur -50.2755 -4.23574 10.2497
rtibia 112.314
rfoot -23.5534 -15.0079
rtoes -8.58793
lfemur -7.13874 -3.06919 -33.4062
ltibia 41.4646
lfoot -23.4023 1.41729
ltoes 9.05911
466
root -2.46734 21.2777 3.2509 172.6 4.36838 174.827
lowerback 11.0926 -1.17988 -4.29835
upperback 2.62727 -1.82561 -0.682685
thorax -3.34992 -0.767173 1.9518
lowerneck -7.44126 -0.100328 -6.75727
upperneck 28.8708 2.93162 2.40458
head 10.3318 1.80114 2.50742
rclavicle -2.96935e-014 2.38542e-015
rhumerus -36.7255 3.91654 -75.0209
rradius 32.808
rwrist 15.7679
rhand -24.2488 4.00677
rfingers 7.12502
rthumb 2.23711 -25.9612
lclavicle -2.96935e-014 2.38542e-015
lhumerus -17.8772 0.171101 87.51
lradius 28.2417
lwrist -2.66211
lhand -27.2738 21.8934
lfingers 7.12502
lthumb -0.68458 51.8721
rfemur -50.6816 -4.48764 10.1808
rtibia 112.881
rfoot -24.1761 -14.494
rtoes -9.33019
lfemur -6.64661 -3.09289 -33.584
ltibia 41.1791
lfoot -23.4224 1.75669
ltoes 8.77422
467
root -2.46685 21.2771 3.22287 172.474 4.05646 174.797
lowerback 10.9908 -1.24969 -4.19413
upperback 2.5643 -1.91041 -0.645263
thorax -3.35693 -0.812617 1.94194
lowerneck -7.34315 -0.125377 -6.68176
upperneck 28.8961 2.94221 2.23998
head 10.3271 1.80394 2.43729
rclavicle 5.7896e-015 5.1684e-015
rhumerus -36.7572 3.42748 -74.871
rradius 32.3575
rwrist 15.9427
rhand -24.0754 3.67573
rfingers 7.12502
rthumb 2.40453 -26.2905
lclavicle 5.7896e-015 5.1684e-015
lhumerus -18.1339 -0.0626927 87.6834
lradius 28.1809
lwrist -2.37595
lhand -27.4247 21.7726
lfingers 7.12502
lthumb -0.83026 51.7507
rfemur -51.1303 -4.79086 10.1552
rtibia 113.432
rfoot -24.6237 -13.8438
rtoes -10.7958
lfemur -6.21358 -3.24443 -33.7326
ltibia 40.9341
lfoot -23.5405 1.95996
ltoes 7.5776
468
root -2.46609 21.2769 3.18968 172.24 3.77862 174.739
lowerback 10.9128 -1.32448 -4.16282
upperback 2.53235 -2.00592 -0.564029
thorax -3.33961 -0.862648 2.01991
lowerneck -7.23469 -0.146669 -6.7098
upperneck 29.008 2.99973 2.07255
head 10.3506 1.82175 2.39237
rclavicle 3.97569e-015 -7.95139e-016
rhumerus -36.8086 3.10352 -74.706
rradius 31.9686
rwrist 16.1432
rhand -24.0583 2.92096
rfingers 7.12502
rthumb 2.42104 -27.045
lclavicle 3.97569e-015 -7.95139e-016
lhumerus -18.4001 -0.0974037 87.8783
lradius 28.027
lwrist -2.20531
lhand -27.4792 21.5317
lfingers 7.12502
lthumb -0.882877 51.5096
rfemur -51.3108 -4.9643 10.0248
rtibia 113.85
rfoot -25.1707 -12.633
rtoes -11.3385
lfemur -5.64869 -3.48292 -33.9156
ltibia 40.7184
lfoot -23.7175 2.02261
ltoes 7.45262
